<?xml version="1.0" encoding="utf-8"?>
<!-- Generator: Adobe Illustrator 13.0.2, SVG Export Plug-In . SVG Version: 6.00 Build 14948)  -->
<!DOCTYPE svg PUBLIC "-//W3C//DTD SVG 1.1//EN" "http://www.w3.org/Graphics/SVG/1.1/DTD/svg11.dtd">
<svg version="1.1" id="Layer_1" xmlns="http://www.w3.org/2000/svg" xmlns:xlink="http://www.w3.org/1999/xlink" x="0px" y="0px"
	 width="606px" height="268px" viewBox="0 -0.509 606 268" enable-background="new 0 -0.509 606 268" xml:space="preserve">
<path fill="#EA7325" d="M292.96,204.913c7.237-1.539,14.083,5.092,7.731,11.955c-4.902,5.712-12.664,2.164-12.34,12.909
	c-5.971,0.797-9.748-4.334-8.642-10.975c1.295-8.099,7.082-8.486,11.62-13.389"/>
<path fill="#EA7325" d="M281.413,214.691c-1.71,5.104-11.005,17.564-9.466,22.23c2.408,10.396,20.855,11.809,25.771,8.709
	c9.498-5.666,3.9-9.785,1.156-19.648c-1.827-6.575,1.013-20.604-5.963-20.15"/>
<path fill="#CECECE" d="M244.943,224.837c3.558,4.563,6.287,6.229,12.879,6.781c6.591,0.555,11.83-1.578,12.301,5.63
	c3.143-1.277,4.464-3.669,4.548-6.016c2.866,0.682,5.733,1.363,8.604,2.048c-0.965-1.923-0.885-4.271-0.608-6.23
	c2.867,0.685,5.735,1.365,9.071,0.472c-2.607-5.188-0.576-10.871,0.816-16.412c1.395-5.543,2.149-10.939-3.01-15.547
	c-3.406-3.008-9.639-5.674-16.257-6.91c-6.618-1.236-13.622-1.043-18.57,1.666c2.276,5.781-0.182,11.873-3.261,17.983
	c-3.079,6.112-6.779,12.246-6.982,18.111"/>
<path fill="#CECECE" d="M245.729,223.316c2.998,4.064,5.492,5.83,10.814,6.506c0.406,0.052,0.828,0.099,1.268,0.137
	c6.146,0.543,11.137-1.43,11.867,4.809c2.854-1.168,4.086-3.328,4.219-5.453c2.607,0.565,5.215,1.129,7.824,1.688
	c-0.816-1.741-0.703-3.864-0.419-5.646c2.604,0.554,5.208,1.104,8.226,0.25c-2.227-4.715-0.41-9.9,0.974-14.928
	c0.878-3.188,1.519-6.309,0.927-9.223c-0.459-2.268-1.656-4.366-3.924-6.221c-3.35-2.737-9.249-4.991-15.466-5.963
	c-6.067-0.946-12.457-0.705-17.009,1.854c1.878,5.279-0.438,10.855-3.279,16.468c-2.954,5.8-6.314,11.614-6.439,17.123"/>
<path fill="#CECECE" d="M246.516,221.798c2.688,3.888,5.082,5.683,10.084,6.363c0.385,0.053,0.785,0.1,1.199,0.141
	c5.703,0.53,10.443-1.28,11.438,3.983c2.562-1.061,3.707-2.989,3.887-4.893c2.352,0.449,4.699,0.894,7.046,1.33
	c-0.667-1.562-0.522-3.461-0.229-5.062c2.344,0.425,4.683,0.845,7.379,0.03c-1.844-4.242-0.225-8.928,1.13-13.443
	c0.964-3.218,1.655-6.34,1.071-9.221c-0.468-2.312-1.74-4.383-4.057-6.114c-3.292-2.462-8.854-4.313-14.675-5.015
	c-5.517-0.664-11.291-0.366-15.448,2.039c1.48,4.776-0.679,9.845-3.296,14.946c-2.817,5.493-5.854,10.985-5.896,16.136"/>
<path fill="#CECECE" d="M247.3,220.275c2.38,3.709,4.675,5.533,9.356,6.224c0.363,0.056,0.74,0.104,1.131,0.144
	c5.26,0.521,9.75-1.132,11.005,3.162c2.272-0.949,3.328-2.647,3.556-4.328c2.094,0.334,4.183,0.655,6.269,0.971
	c-0.519-1.385-0.343-3.057-0.039-4.478c2.08,0.298,4.153,0.585,6.532-0.188c-1.465-3.771-0.02-7.95,1.283-11.959
	c1.057-3.25,1.793-6.375,1.219-9.222c-0.475-2.359-1.82-4.4-4.188-6.01c-3.229-2.191-8.45-3.642-13.884-4.066
	c-4.957-0.389-10.126-0.028-13.887,2.228c1.082,4.274-0.93,8.83-3.313,13.431c-2.688,5.183-5.391,10.354-5.353,15.146"/>
<path fill="#CECECE" d="M248.084,218.757c2.07,3.53,4.268,5.386,8.628,6.082c0.343,0.056,0.697,0.104,1.062,0.146
	c4.815,0.522,9.058-0.982,10.574,2.34c1.981-0.84,2.949-2.309,3.226-3.766c1.835,0.215,3.665,0.42,5.489,0.609
	c-0.371-1.204-0.162-2.65,0.149-3.893c1.817,0.168,3.627,0.324,5.687-0.407c-1.082-3.3,0.207-6.968,1.439-10.476
	c1.154-3.279,1.93-6.408,1.363-9.221c-0.482-2.408-1.896-4.424-4.321-5.902c-3.161-1.93-8.045-2.977-13.093-3.119
	c-4.395-0.125-8.961,0.31-12.326,2.412c0.686,3.772-1.181,7.812-3.331,11.91c-2.558,4.871-4.927,9.727-4.809,14.158"/>
<path fill="#CECECE" d="M248.869,217.236c1.761,3.353,3.861,5.226,7.898,5.938c0.321,0.059,0.652,0.107,0.994,0.146
	c4.374,0.498,8.363-0.832,10.143,1.518c1.691-0.729,2.57-1.968,2.895-3.201c1.576,0.1,3.146,0.184,4.711,0.252
	c-0.222-1.024,0.02-2.248,0.34-3.308c1.555,0.04,3.102,0.063,4.84-0.627c-0.701-2.828,0.449-5.981,1.597-8.991
	c1.261-3.311,2.065-6.439,1.508-9.219c-0.491-2.455-1.969-4.452-4.453-5.799c-3.086-1.674-7.631-2.321-12.302-2.172
	c-3.826,0.123-7.796,0.646-10.766,2.6c0.287,3.271-1.434,6.799-3.349,10.393c-2.43,4.561-4.465,9.096-4.265,13.17"/>
<path fill="#CECECE" d="M249.654,215.716c1.451,3.177,3.451,5.074,7.17,5.8c0.301,0.059,0.609,0.108,0.927,0.148
	c3.929,0.497,7.67-0.686,9.71,0.693c1.402-0.618,2.191-1.627,2.564-2.641c1.317-0.017,2.629-0.053,3.931-0.105
	c-0.071-0.848,0.2-1.846,0.53-2.723c1.293-0.09,2.572-0.195,3.994-0.848c-0.32-2.355,0.709-4.988,1.75-7.506
	c1.381-3.337,2.203-6.477,1.653-9.221c-0.5-2.5-2.036-4.484-4.586-5.691c-3.008-1.424-7.212-1.688-11.511-1.225
	c-3.254,0.351-6.63,0.983-9.204,2.787c-0.108,2.77-1.688,5.778-3.365,8.871c-2.306,4.247-4.002,8.465-3.721,12.183"/>
<path fill="#CECECE" d="M250.439,214.195c1.143,2.996,3.045,4.932,6.439,5.656c0.28,0.061,0.566,0.111,0.857,0.152
	c3.486,0.488,6.978-0.537,9.279-0.129c1.111-0.509,1.813-1.287,2.233-2.078c1.06-0.133,2.11-0.287,3.151-0.466
	c0.078-0.667,0.381-1.438,0.722-2.138c1.028-0.217,2.045-0.457,3.146-1.064c0.062-1.885,0.984-3.99,1.907-6.021
	c1.522-3.352,2.341-6.51,1.798-9.219c-0.508-2.549-2.101-4.527-4.718-5.588c-2.925-1.185-6.793-1.086-10.72-0.275
	c-2.684,0.553-5.464,1.322-7.643,2.974c-0.508,2.269-1.947,4.762-3.385,7.354c-2.184,3.935-3.537,7.836-3.177,11.192"/>
<path fill="#CECECE" d="M251.225,212.677c0.834,2.817,2.637,4.78,5.711,5.515c0.26,0.062,0.523,0.115,0.791,0.156
	c3.043,0.471,6.283-0.389,8.848-0.951c0.82-0.397,1.436-0.946,1.902-1.517c0.803-0.248,1.596-0.522,2.373-0.823
	c0.228-0.488,0.562-1.035,0.911-1.554c0.769-0.347,1.519-0.717,2.3-1.285c0.442-1.411,1.272-2.981,2.062-4.536
	c1.702-3.351,2.477-6.546,1.943-9.221c-0.516-2.595-2.164-4.577-4.851-5.479c-2.841-0.955-6.394-0.537-9.929,0.67
	c-2.123,0.724-4.301,1.662-6.081,3.16c-0.906,1.767-2.207,3.739-3.401,5.834c-2.066,3.617-3.076,7.205-2.634,10.205"/>
<path fill="#CECECE" d="M271.176,192.657c2.756,0.733,4.459,2.733,4.982,5.376c0.523,2.642-0.131,5.922-2.09,9.219
	c-1.957,3.298-4.848,5.982-7.938,7.662c-3.091,1.681-6.38,2.352-9.138,1.615c-2.758-0.731-4.459-2.733-4.982-5.374
	c-0.523-2.644,0.131-5.923,2.09-9.218c1.957-3.297,4.849-5.982,7.938-7.662C265.128,192.595,268.418,191.925,271.176,192.657z"/>
<path fill="#EA7325" d="M265.434,219.966c5.719,0.619,9.137,7.39,2.76,11.06c-5.023,3.149-9.877-1.487-12.286,6.809
	c-4.601-0.873-6.123-5.734-3.669-10.535c2.949-5.869,7.313-4.73,11.869-7.352"/>
<path fill="#EA7325" d="M254.506,224.574c-2.52,3.479-12.445,10.697-12.461,14.646c-0.783,8.547,12.479,14.207,16.868,13.06
	c8.403-1.978,5.288-6.515,5.694-14.737c0.271-5.48,5.824-15.502,0.564-16.888"/>
<path fill="#CECECE" d="M122.827,155.805c0,0,35.391-26.954,42.789-41.029c10.581-20.563,17.61-56.386,14.253-66.202
	c31.283-1.49,22.488,35.487,22.488,35.487s11.222-0.01,14.943,10.705c3.727,10.716-6.363,17.997-6.363,17.997
	s4.131,10.657,5.4,15.097c2.305,8.356,0.395,14.258-4.857,22.955c-7.875,13.039-24.258,24.342-41.033,26.405
	c-20.436,2.494-33.946-10.125-48.654-20.312"/>
<path fill="#CECECE" d="M156.562,162.523c0,0,16.23,3.836,31.14,2.15c24.997-3.136,65.69-13.527,85.124-27.964
	c19.434-14.432,24.562-27.677,34.02-39.333c5.812,13.049,2.176,50.613,2.176,50.613s-4.873,36.415-15.05,54.794
	c-10.179,18.379-29.468,39.532-69.604,49.144c-40.136,9.608-55.228,4.615-73.483-3.312c-18.255-7.927-34.125-38.308-27.625-64.106
	c3.651-11.848,3.025-15.625,15.433-19.568"/>
<path fill="#F4F4F4" d="M133.158,139.859c8.848,16.162,22.469,20.426,39.021,18.84c27.746-3.021,72.78-14.137,94.036-30.536
	c21.259-16.4,26.625-31.779,36.851-45.187c6.809,15.436,3.739,59.34,3.739,59.34s-4.477,42.525-15.329,63.789
	c-10.854,21.264-31.776,45.541-76.209,55.752c-44.434,10.211-61.364,3.968-81.895-5.791c-20.531-9.762-38.987-45.76-32.422-75.811
	c3.758-13.781,2.96-18.225,16.67-22.521"/>
<path fill="#CECECE" d="M97.437,41.855c5.539,3.678,2.329,8.015-1.348,13.555c-3.677,5.539-6.428,10.181-11.967,6.504
	c-5.538-3.677-7.048-11.147-3.371-16.686C84.428,39.689,91.898,38.18,97.437,41.855z"/>
<path fill="#CECECE" d="M97.521,42.952c3.473-1.773,6.164-4.824,7.367-8.015c1.988,4.394-0.491,8.365-4.672,11.273L97.521,42.952z"
	/>
<path fill="#CECECE" d="M95.475,42.353c2.343-2.343,3.722-5.514,3.859-8.408c2.757,3.032,1.791,6.893-0.827,10.338L95.475,42.353z"
	/>
<ellipse transform="matrix(-0.7324 0.6809 -0.6809 -0.7324 192.1503 31.2203)" fill="#CECECE" cx="89.94" cy="53.372" rx="10.968" ry="9.348"/>
<path fill="#CECECE" d="M85.362,51.225c2.955-3.808,7.98-4.851,11.225-2.332c1.116,0.866,1.867,2.045,2.263,3.37
	c0.387-2.672-0.46-5.291-2.5-6.875c-3.246-2.52-8.271-1.475-11.227,2.332c-1.938,2.497-2.496,5.559-1.74,8.083
	C83.611,54.229,84.267,52.637,85.362,51.225z"/>
<circle opacity="0.92" fill="#CECECE" enable-background="new    " cx="94.932" cy="51.687" r="3.506"/>
<circle fill="#CECECE" cx="92.113" cy="48.196" r="2.136"/>
<path fill="#F4F4F4" d="M164.262,43.555c1.463,11.991-1.969,26.865-2.406,38.985c-2.646,26.276-2.625,54.276-0.201,80.203
	c1.725,15.791,10.046,34.946,24.591,42.854c11.882,6.184,19.897,2.446,12.078,18.262c-10.095,19.787-41.61,14.959-57.466,6.504
	c-10.571-5.637-22.497-12.45-28.853-21.559c-9.062-11.469-1.309-19.003,4.873-30.886c12.867-25.705,18.132-50.889,22.503-79.829
	c1.201-10.265-1.069-24.747,2.796-33.286c2.733-6.552,13.807-21.316,21.407-21.84"/>
<circle fill="#F4F4F4" cx="124.035" cy="40.984" r="40.984"/>
<path fill="#F4F4F4" d="M148.678,16.048c9.281,14.708,3.594,35.371-12.704,46.15c-16.299,10.779-37.036,7.594-46.318-7.114
	c-9.282-14.708-3.594-35.371,12.705-46.151C118.659-1.846,139.395,1.339,148.678,16.048z"/>
<ellipse transform="matrix(-0.7279 0.6856 -0.6856 -0.7279 218.1778 -26.2576)" fill="#F4F4F4" cx="114.298" cy="30.157" rx="30.554" ry="22.647"/>
<path fill="#C15928" d="M81.758,87.363c15.589,1.351,45.584,7.612,49.777-12.54c-10.073-0.699-21.883,2.639-31.797,4.487
	c-2.203,0.34-10.325-2.043-18.967-0.384C65.56,81.848,42.224,88.984,42.224,88.984S66.168,86.014,81.758,87.363z"/>
<path fill="#0991B2" d="M65.428,75.035c3.667-8.631,8.601-20.251-1.649-26.563c0.067,6.299-6.203,14.607-5.381,20.052
	c0.341,2.887,3.802,3.965,6.458,5.093"/>
<path fill="#5BB8DE" d="M64.14,75.238c-11.886,0.492-27.887,1.154-30.796-13.837c7.446,2.896,20.114-0.833,26.209,2.577
	c3.275,1.696,3.008,6.288,3.158,9.945"/>
<path fill="#058FAF" d="M64.049,81.176c10.965,6.177,21.184-9.353,11.98-14.709c-8.321-4.946-24.616,10.422-11.786,15.334"/>
<path fill="#09B0D8" d="M88.897,82.285c1.35,13.166,6.393,40.61-12.234,55.976c-18.627,15.364-20.946,27.416-24.675,44.722
	c-3.498,21.438,7.274,35.026,25.088,46.978c17.813,11.948,45.205,4.413,65.041-3.077c19.837-7.49,28.596-29.408,17.83-51.984
	c-4.19-8.742-10.045-16.33-15.9-23.918c-5.77-8.262-16.388-16.714-23.582-28.361c-7.194-11.648-12.423-31.918-13.887-38.261
	L88.897,82.285z"/>
<path fill="#CECECE" d="M135.482,47.054c2.898,5.982-2.07,8.083-8.055,10.983c-5.983,2.898-10.713,5.496-13.611-0.487
	c-2.898-5.983-0.398-13.182,5.584-16.081C125.385,38.571,132.584,41.071,135.482,47.054z"/>
<path fill="#CECECE" d="M134.998,48.041c3.892,0.238,7.761-1.019,10.419-3.154c-0.523,4.794-4.677,6.953-9.757,7.331L134.998,48.041
	z"/>
<path fill="#CECECE" d="M133.54,46.484c3.209-0.826,6.01-2.854,7.601-5.276c0.831,4.014-1.964,6.845-5.972,8.479L133.54,46.484z"/>
<ellipse transform="matrix(-0.9769 0.2136 -0.2136 -0.9769 254.8307 78.7859)" fill="#CECECE" cx="123.159" cy="53.16" rx="10.968" ry="9.347"/>
<path fill="#CECECE" d="M134.513,51.223c-0.944-4.404-5.899-7.075-11.065-5.968c-3.39,0.727-6.019,2.904-7.167,5.557
	c1.303-1.16,2.977-2.034,4.892-2.445c5.167-1.108,10.12,1.562,11.065,5.966c0.325,1.514,0.124,3.033-0.478,4.423
	C133.971,56.787,135.107,53.993,134.513,51.223z"/>
<circle opacity="0.92" fill="#CECECE" enable-background="new    " cx="128.326" cy="54.244" r="3.505"/>
<circle fill="#CECECE" cx="127.674" cy="49.805" r="2.136"/>
<path fill="#010101" d="M133.721,46.039c2.898,5.982-2.071,8.085-8.056,10.983c-5.982,2.898-10.712,5.496-13.61-0.486
	c-2.898-5.983-0.398-13.183,5.584-16.081C123.623,37.555,130.822,40.056,133.721,46.039z"/>
<path fill="#010101" d="M133.236,47.026c3.892,0.238,7.761-1.019,10.418-3.153c-0.522,4.793-4.676,6.951-9.755,7.33L133.236,47.026z
	"/>
<path fill="#010101" d="M131.778,45.469c3.208-0.826,6.009-2.854,7.6-5.275c0.832,4.013-1.964,6.846-5.971,8.479L131.778,45.469z"/>
<ellipse transform="matrix(-0.9769 0.2137 -0.2137 -0.9769 251.1379 77.132)" fill="#212220" cx="121.4" cy="52.139" rx="10.969" ry="9.347"/>
<path fill="#5BB8DE" d="M131.049,49.653c-0.841-3.918-5.416-6.259-10.22-5.228c-3.151,0.675-5.608,2.637-6.695,5.011
	c1.218-1.044,2.778-1.838,4.559-2.22c4.805-1.029,9.379,1.311,10.22,5.229c0.289,1.348,0.089,2.704-0.48,3.948
	C130.5,54.62,131.578,52.118,131.049,49.653z"/>
<ellipse transform="matrix(-0.9574 0.2888 -0.2888 -0.9574 248.416 76.5707)" opacity="0.7" fill="#919190" enable-background="new    " cx="118.559" cy="56.611" rx="2.924" ry="2.962"/>
<circle fill="#EAEAEA" cx="125.912" cy="48.79" r="2.136"/>
<path fill="#EA7325" d="M137.95,62.198c7.282,13.657-10.637,18.154-18.485,19.811c-7.847,1.656-22.757,0.652-39.437,1.699
	c-22.779,2.198-64.604,17.379-72.137,20.15C0.358,106.631,0,104.931,0,104.931s36.441-18.832,53.404-25.506
	c16.963-6.675,36.284-19.575,34.448-17.83c11.429-1.564,16.611,5.587,31.15,8.315C133.54,72.639,137.95,62.198,137.95,62.198z"/>
<path fill="#BABABB" d="M212.46,171.118c-2.208-0.121-5.876-3.312-5.876-3.312s3.997-2.767,6.205-2.646
	c2.207,0.123,3.925,1.556,3.834,3.2C216.531,170.007,214.668,171.241,212.46,171.118z"/>
<path fill="#F3F3F3" d="M142.181,130.676c-0.409-1.573,1.004-4.852,1.004-4.852s2.829,2.179,3.236,3.752
	c0.407,1.572-0.211,3.095-1.383,3.398C143.867,133.278,142.587,132.248,142.181,130.676z"/>
<path fill="#F2F2F2" d="M142.657,121.038c-0.032-1.626,2.105-4.487,2.105-4.487s2.244,2.778,2.274,4.403
	c0.031,1.624-0.925,2.96-2.135,2.983S142.688,122.663,142.657,121.038z"/>
<path opacity="0.2" fill="#7E7E7E" enable-background="new    " d="M162.581,160.186c0,0,47.606-3.605,62.544-12.107
	c21.619-12.557,49.072-41.235,51.861-52.251c28.89,17.314-0.824,46.002-0.824,46.002s10.053,6.69,7.057,18.75
	c-2.992,12.06-16.326,12.718-16.326,12.718s-2.598,12.247-4.08,17.08c-2.873,9.047-8.071,13.322-17.906,18.167
	c-14.754,7.267-36.098,7.856-52.338-0.267c-19.77-9.912-24.414-29.564-31.563-47.696"/>
<path fill="#F3F3F3" d="M156.766,156.613c0,0,49.385-3.508,64.858-12.104c22.394-12.69,50.784-41.751,53.644-52.941
	c30.033,17.694-0.707,46.757-0.707,46.757s10.455,6.834,7.385,19.08c-3.065,12.246-16.9,12.873-16.9,12.873
	s-2.652,12.439-4.176,17.348c-2.954,9.188-8.332,13.518-18.523,18.408c-15.283,7.336-37.43,7.867-54.308-0.439
	c-20.546-10.142-25.431-30.132-32.906-48.585"/>
<path fill="#363636" d="M275.255,138.141c0,0,30.741-29.063,0.707-46.758c-0.558,2.181-2.095,5.046-4.358,8.331
	c7.66,16.528-12.103,35.22-12.103,35.22s10.454,6.834,7.384,19.08c-3.066,12.247-16.9,12.872-16.9,12.872
	s-2.652,12.439-4.176,17.349c-2.955,9.188-8.332,13.517-18.522,18.408c-9.14,4.385-20.729,6.315-32.181,5.402
	c15.793,5.436,34.509,4.246,47.936-2.197c10.189-4.893,15.568-9.222,18.521-18.406c1.522-4.907,4.177-17.351,4.177-17.351
	s13.834-0.625,16.901-12.871C285.709,144.973,275.255,138.141,275.255,138.141z"/>
<path fill="#010101" d="M270.527,83.909c0.338,3.633-3.975,10.378-3.975,10.378s-5.473-5.846-5.808-9.473
	c-0.337-3.627,1.581-6.772,4.286-7.023C267.732,77.546,270.193,80.282,270.527,83.909z"/>
<path fill="#FFFFFF" d="M277.625,205.749c-0.869-1.88,0.16-6.308,0.16-6.308s4.037,2.092,4.902,3.969
	c0.869,1.878,0.438,3.924-0.961,4.57C280.328,208.626,278.492,207.626,277.625,205.749z"/>
<path fill="#5B5B5B" d="M196.956,214.268c-1.647-1.187-2.908-5.459-2.908-5.459s4.454-0.166,6.101,1.02
	c1.646,1.184,2.269,3.139,1.386,4.363C200.65,215.416,198.604,215.45,196.956,214.268z"/>
<path fill="#1D829F" d="M67.019,175.461c6.297,25.956,23.139,34.854,37.542,27.027c7.465,9.842,33.275,6.056,47.18-8.747
	c2.74,22.965-29.824,34.887-45.967,33.702c-9.133-0.703-26.709-4.662-34.021-11.387c-8.352-8.021-15.138-30.688-6.46-39.342"/>
<path fill="none" stroke="#85C8DB" stroke-width="6" stroke-dasharray="6,7" d="M305.528,224.707
	c28.609,14.156,114.632,15.311,130.579-25.369c5.851-20.169-0.791-41.842-13.834-45.625s-21.95,0.847-29.896,7.89
	c-15.802,15.743-9.851,29.647,2.664,47.275c27.749,36.444,68.674,44.663,112.715,29.148c27.35-10.686,52.409-27.231,78.997-39.868
	c12.02-5.258,23.656-11.493,34.911-18.706"/>
</svg>
